PathFileType	4	(X/Y/Z)	C:\Users\italobelli\Desktop\GitHub\PTbot_officialCBL\Personal_Results\SHRUG02_noisy2.trc
DataRate	CameraRate	NumFrames	NumMarkers	Units	OrigDataRate	OrigDataStartFrame	OrigNumFrames
112.250000	112.250000	38	9	m	112.250000	394	450
Frame#	Time		gu		centelbow		EpL		centpxt8		centijc7		ij		ts		aa		ai
			X1	Y1	Z1	X2	Y2	Z2	X3	Y3	Z3	X4	Y4	Z4	X5	Y5	Z5	X6	Y6	Z6	X7	Y7	Z7	X8	Y8	Z8	X9	Y9	Z9

394	3.5011	-0.076279	-0.011878	0.16656	-0.11361	-0.24725	0.20768	-0.091724	-0.2425	0.23088	-0.046816	-0.15316	-0.008669	-0.046816	0.031938	-0.008669	0	0	0	-0.13675	0.030877	0.058285	-0.1025	0.027095	0.17246	-0.15945	-0.080014	0.066864
395	3.51	-0.076242	-0.011858	0.1666	-0.11354	-0.24715	0.20778	-0.091651	-0.2424	0.23097	-0.046816	-0.15316	-0.008669	-0.046816	0.031938	-0.008669	0	0	0	-0.13673	0.030896	0.058312	-0.10246	0.027133	0.17248	-0.15944	-0.079993	0.066903
396	3.5189	-0.076208	-0.011838	0.16663	-0.11347	-0.24705	0.20789	-0.091583	-0.24231	0.23105	-0.046816	-0.15316	-0.008669	-0.046816	0.031938	-0.008669	0	0	0	-0.13672	0.030916	0.058336	-0.10244	0.027171	0.1725	-0.15942	-0.079971	0.06694
397	3.5278	-0.076177	-0.011815	0.16667	-0.11341	-0.24695	0.20799	-0.091522	-0.24221	0.23115	-0.046816	-0.15316	-0.008669	-0.046816	0.031938	-0.008669	0	0	0	-0.13671	0.030937	0.058358	-0.10241	0.027209	0.17252	-0.15941	-0.079949	0.066976
398	3.5367	-0.076149	-0.011792	0.1667	-0.11336	-0.24685	0.2081	-0.091466	-0.24212	0.23124	-0.046816	-0.15316	-0.008669	-0.046816	0.031938	-0.008669	0	0	0	-0.13669	0.030958	0.058378	-0.10238	0.027248	0.17254	-0.15941	-0.079924	0.067009
399	3.5457	-0.076124	-0.011767	0.16673	-0.11331	-0.24675	0.20821	-0.091416	-0.24203	0.23134	-0.046816	-0.15316	-0.008669	-0.046816	0.031938	-0.008669	0	0	0	-0.13668	0.030981	0.058396	-0.10236	0.027288	0.17256	-0.1594	-0.079899	0.067041
400	3.5546	-0.076102	-0.01174	0.16676	-0.11327	-0.24666	0.20832	-0.091372	-0.24193	0.23145	-0.046816	-0.15316	-0.008669	-0.046816	0.031938	-0.008669	0	0	0	-0.13666	0.031005	0.058412	-0.10234	0.027327	0.17257	-0.15939	-0.079873	0.067071
401	3.5635	-0.076083	-0.011713	0.16679	-0.11323	-0.24656	0.20844	-0.091333	-0.24184	0.23156	-0.046816	-0.15316	-0.008669	-0.046816	0.031938	-0.008669	0	0	0	-0.13665	0.03103	0.058426	-0.10231	0.027367	0.17258	-0.15939	-0.079845	0.067099
402	3.5724	-0.076067	-0.011684	0.16682	-0.11319	-0.24646	0.20856	-0.0913	-0.24175	0.23167	-0.046816	-0.15316	-0.008669	-0.046816	0.031938	-0.008669	0	0	0	-0.13664	0.031055	0.058438	-0.1023	0.027408	0.17259	-0.15939	-0.079816	0.067126
403	3.5813	-0.076054	-0.011654	0.16684	-0.11316	-0.24636	0.20868	-0.091272	-0.24165	0.23178	-0.046816	-0.15316	-0.008669	-0.046816	0.031938	-0.008669	0	0	0	-0.13663	0.031082	0.058448	-0.10228	0.027449	0.1726	-0.15939	-0.079786	0.067151
404	3.5902	-0.076044	-0.011622	0.16687	-0.11314	-0.24627	0.2088	-0.091249	-0.24156	0.2319	-0.046816	-0.15316	-0.008669	-0.046816	0.031938	-0.008669	0	0	0	-0.13661	0.031109	0.058457	-0.10226	0.02749	0.17261	-0.15939	-0.079755	0.067174
405	3.5991	-0.076037	-0.01159	0.16689	-0.11312	-0.24617	0.20892	-0.091232	-0.24147	0.23202	-0.046816	-0.15316	-0.008669	-0.046816	0.031938	-0.008669	0	0	0	-0.1366	0.031137	0.058464	-0.10225	0.027531	0.17262	-0.15939	-0.079723	0.067195
406	3.608	-0.076032	-0.011556	0.16692	-0.11311	-0.24607	0.20905	-0.09122	-0.24138	0.23215	-0.046816	-0.15316	-0.008669	-0.046816	0.031938	-0.008669	0	0	0	-0.13659	0.031166	0.058468	-0.10223	0.027573	0.17262	-0.15939	-0.07969	0.067215
407	3.6169	-0.076029	-0.011521	0.16694	-0.1131	-0.24598	0.20918	-0.091213	-0.24128	0.23227	-0.046816	-0.15316	-0.008669	-0.046816	0.031938	-0.008669	0	0	0	-0.13657	0.031196	0.058472	-0.10222	0.027615	0.17263	-0.15939	-0.079656	0.067233
408	3.6258	-0.07603	-0.011485	0.16697	-0.11309	-0.24588	0.20931	-0.091211	-0.24119	0.2324	-0.046816	-0.15316	-0.008669	-0.046816	0.031938	-0.008669	0	0	0	-0.13656	0.031227	0.058473	-0.10221	0.027658	0.17263	-0.1594	-0.079621	0.067249
409	3.6347	-0.076033	-0.011448	0.16699	-0.11309	-0.24579	0.20944	-0.091213	-0.2411	0.23254	-0.046816	-0.15316	-0.008669	-0.046816	0.031938	-0.008669	0	0	0	-0.13655	0.031259	0.058473	-0.1022	0.0277	0.17263	-0.1594	-0.079585	0.067264
410	3.6437	-0.076038	-0.01141	0.16701	-0.1131	-0.24569	0.20958	-0.091221	-0.24101	0.23267	-0.046816	-0.15316	-0.008669	-0.046816	0.031938	-0.008669	0	0	0	-0.13654	0.031291	0.058471	-0.1022	0.027743	0.17263	-0.15941	-0.079548	0.067277
411	3.6526	-0.076046	-0.01137	0.16703	-0.1131	-0.2456	0.20971	-0.091233	-0.24092	0.23281	-0.046816	-0.15316	-0.008669	-0.046816	0.031938	-0.008669	0	0	0	-0.13653	0.031324	0.058467	-0.10219	0.027787	0.17263	-0.15942	-0.07951	0.067289
412	3.6615	-0.076056	-0.01133	0.16705	-0.11312	-0.24551	0.20985	-0.091249	-0.24083	0.23296	-0.046816	-0.15316	-0.008669	-0.046816	0.031938	-0.008669	0	0	0	-0.13652	0.031357	0.058462	-0.10219	0.027831	0.17263	-0.15943	-0.079471	0.067299
413	3.6704	-0.076068	-0.011289	0.16706	-0.11313	-0.24541	0.20999	-0.09127	-0.24074	0.2331	-0.046816	-0.15316	-0.008669	-0.046816	0.031938	-0.008669	0	0	0	-0.13651	0.031392	0.058456	-0.10218	0.027875	0.17262	-0.15944	-0.079431	0.067307
414	3.6793	-0.076083	-0.011247	0.16708	-0.11315	-0.24532	0.21013	-0.091296	-0.24065	0.23325	-0.046816	-0.15316	-0.008669	-0.046816	0.031938	-0.008669	0	0	0	-0.13649	0.031427	0.058448	-0.10218	0.027919	0.17262	-0.15945	-0.079391	0.067314
415	3.6882	-0.0761	-0.011204	0.1671	-0.11318	-0.24523	0.21027	-0.091326	-0.24056	0.2334	-0.046816	-0.15316	-0.008669	-0.046816	0.031938	-0.008669	0	0	0	-0.13648	0.031463	0.058438	-0.10218	0.027964	0.17261	-0.15946	-0.07935	0.06732
416	3.6971	-0.076119	-0.01116	0.16711	-0.11321	-0.24514	0.21042	-0.09136	-0.24048	0.23355	-0.046816	-0.15316	-0.008669	-0.046816	0.031938	-0.008669	0	0	0	-0.13647	0.031499	0.058427	-0.10218	0.028009	0.1726	-0.15947	-0.079308	0.067324
417	3.706	-0.076141	-0.011116	0.16713	-0.11324	-0.24504	0.21057	-0.091398	-0.24039	0.23371	-0.046816	-0.15316	-0.008669	-0.046816	0.031938	-0.008669	0	0	0	-0.13646	0.031536	0.058415	-0.10218	0.028054	0.1726	-0.15949	-0.079265	0.067327
418	3.7149	-0.076164	-0.01107	0.16714	-0.11328	-0.24495	0.21072	-0.09144	-0.2403	0.23386	-0.046816	-0.15316	-0.008669	-0.046816	0.031938	-0.008669	0	0	0	-0.13645	0.031573	0.058401	-0.10219	0.028099	0.17259	-0.1595	-0.079222	0.067328
419	3.7238	-0.076189	-0.011024	0.16715	-0.11332	-0.24486	0.21087	-0.091486	-0.24022	0.23402	-0.046816	-0.15316	-0.008669	-0.046816	0.031938	-0.008669	0	0	0	-0.13644	0.031612	0.058386	-0.10219	0.028145	0.17258	-0.15952	-0.079177	0.067327
420	3.7327	-0.076217	-0.010977	0.16716	-0.11336	-0.24477	0.21102	-0.091536	-0.24013	0.23419	-0.046816	-0.15316	-0.008669	-0.046816	0.031938	-0.008669	0	0	0	-0.13643	0.03165	0.05837	-0.1022	0.028191	0.17256	-0.15953	-0.079132	0.067326
421	3.7416	-0.076246	-0.01093	0.16717	-0.11341	-0.24468	0.21117	-0.091589	-0.24005	0.23435	-0.046816	-0.15316	-0.008669	-0.046816	0.031938	-0.008669	0	0	0	-0.13643	0.03169	0.058352	-0.1022	0.028237	0.17255	-0.15955	-0.079087	0.067322
422	3.7506	-0.076277	-0.010881	0.16718	-0.11346	-0.2446	0.21133	-0.091647	-0.23996	0.23452	-0.046816	-0.15316	-0.008669	-0.046816	0.031938	-0.008669	0	0	0	-0.13642	0.031729	0.058334	-0.10221	0.028284	0.17254	-0.15957	-0.079041	0.067318
423	3.7595	-0.07631	-0.010832	0.16719	-0.11351	-0.24451	0.21148	-0.091708	-0.23988	0.23468	-0.046816	-0.15316	-0.008669	-0.046816	0.031938	-0.008669	0	0	0	-0.13641	0.03177	0.058314	-0.10222	0.028331	0.17252	-0.15959	-0.078994	0.067312
424	3.7684	-0.076344	-0.010783	0.1672	-0.11357	-0.24442	0.21164	-0.091772	-0.23979	0.23485	-0.046816	-0.15316	-0.008669	-0.046816	0.031938	-0.008669	0	0	0	-0.1364	0.03181	0.058293	-0.10223	0.028378	0.17251	-0.1596	-0.078947	0.067305
425	3.7773	-0.076381	-0.010732	0.16721	-0.11363	-0.24433	0.2118	-0.09184	-0.23971	0.23502	-0.046816	-0.15316	-0.008669	-0.046816	0.031938	-0.008669	0	0	0	-0.13639	0.031852	0.05827	-0.10224	0.028425	0.17249	-0.15962	-0.078899	0.067296
426	3.7862	-0.076419	-0.010681	0.16721	-0.11369	-0.24425	0.21196	-0.091911	-0.23963	0.2352	-0.046816	-0.15316	-0.008669	-0.046816	0.031938	-0.008669	0	0	0	-0.13638	0.031893	0.058247	-0.10226	0.028472	0.17248	-0.15965	-0.07885	0.067286
427	3.7951	-0.076458	-0.01063	0.16722	-0.11375	-0.24416	0.21212	-0.091985	-0.23955	0.23537	-0.046816	-0.15316	-0.008669	-0.046816	0.031938	-0.008669	0	0	0	-0.13638	0.031935	0.058223	-0.10227	0.02852	0.17246	-0.15967	-0.078802	0.067275
428	3.804	-0.076499	-0.010578	0.16722	-0.11382	-0.24408	0.21228	-0.092063	-0.23947	0.23555	-0.046816	-0.15316	-0.008669	-0.046816	0.031938	-0.008669	0	0	0	-0.13637	0.031978	0.058197	-0.10228	0.028568	0.17244	-0.15969	-0.078752	0.067263
429	3.8129	-0.076542	-0.010526	0.16723	-0.11389	-0.24399	0.21245	-0.092143	-0.23939	0.23573	-0.046816	-0.15316	-0.008669	-0.046816	0.031938	-0.008669	0	0	0	-0.13636	0.032021	0.058171	-0.1023	0.028616	0.17242	-0.15971	-0.078702	0.067249
430	3.8218	-0.076586	-0.010473	0.16723	-0.11397	-0.24391	0.21261	-0.092226	-0.23931	0.23591	-0.046816	-0.15316	-0.008669	-0.046816	0.031938	-0.008669	0	0	0	-0.13636	0.032064	0.058144	-0.10232	0.028665	0.1724	-0.15973	-0.078652	0.067234
431	3.8307	-0.076632	-0.01042	0.16723	-0.11405	-0.24383	0.21278	-0.092312	-0.23923	0.23609	-0.046816	-0.15316	-0.008669	-0.046816	0.031938	-0.008669	0	0	0	-0.13635	0.032107	0.058116	-0.10233	0.028713	0.17238	-0.15976	-0.078601	0.067218
